<svg width="11" height="11" viewBox="0 0 11 11" fill="none" xmlns="http://www.w3.org/2000/svg">
<path d="M5.31651 0.423147C5.38614 0.262571 5.61386 0.262571 5.68349 0.423147L7.08237 3.64908C7.11135 3.71591 7.17437 3.7617 7.24688 3.76861L10.7472 4.10215C10.9214 4.11875 10.9918 4.33532 10.8606 4.45117L8.22484 6.77844C8.17024 6.82666 8.14616 6.90075 8.162 6.97185L8.92644 10.4039C8.96449 10.5748 8.78026 10.7086 8.62955 10.6196L5.60168 8.83203C5.53895 8.795 5.46105 8.795 5.39832 8.83203L2.37046 10.6196C2.21974 10.7086 2.03551 10.5748 2.07356 10.4039L2.838 6.97185C2.85384 6.90075 2.82976 6.82666 2.77516 6.77844L0.139396 4.45117C0.00819606 4.33532 0.0785651 4.11875 0.252799 4.10215L3.75312 3.76861C3.82563 3.7617 3.88865 3.71591 3.91763 3.64908L5.31651 0.423147Z" fill="#E98D4B"/>
</svg>
